<svg xmlns="http://www.w3.org/2000/svg" viewBox="0 0 512 512">
  <defs>
    <linearGradient id="shieldGradient" x1="0%" y1="0%" x2="100%" y2="100%">
      <stop offset="0%" style="stop-color:#1e40af;stop-opacity:1" />
      <stop offset="100%" style="stop-color:#16a34a;stop-opacity:1" />
    </linearGradient>
  </defs>
  <path d="M256 0C114.6 14.1 0 114.6 0 256c0 141.4 114.6 241.9 256 256 141.4-14.1 256-114.6 256-256C512 114.6 397.4 14.1 256 0zm0 464C140.8 449.9 48 368.6 48 256S140.8 62.1 256 48c115.2 14.1 208 95.4 208 208s-92.8 193.9-208 208z" fill="url(#shieldGradient)"/>
  <path d="M362.3 154.3L226.9 289.7l-77.2-77.2c-12.5-12.5-32.8-12.5-45.3 0s-12.5 32.8 0 45.3l99.9 99.9c12.5 12.5 32.8 12.5 45.3 0l158-158c12.5-12.5 12.5-32.8 0-45.3s-32.8-12.5-45.3 0z" fill="#ffffff"/>
</svg>
